<?xml version="1.0" encoding="UTF-8"?>
<svg xmlns="http://www.w3.org/2000/svg" xmlns:xlink="http://www.w3.org/1999/xlink" width="16px" height="16px" viewBox="0 0 16 16" version="1.1">
<g id="surface1">
<path style=" stroke:none;fill-rule:nonzero;fill:rgb(0%,0%,0%);fill-opacity:1;" d="M 11.410156 3.222656 C 11.925781 3.222656 12.34375 3.640625 12.34375 4.15625 L 12.34375 13.050781 C 12.34375 13.566406 11.925781 13.984375 11.410156 13.984375 L 4.589844 13.984375 C 4.074219 13.984375 3.65625 13.566406 3.65625 13.050781 L 3.65625 4.15625 C 3.65625 3.640625 4.074219 3.222656 4.589844 3.222656 L 4.9375 3.222656 L 4.9375 4.15625 L 4.589844 4.15625 L 4.589844 13.050781 L 11.410156 13.050781 L 11.410156 4.15625 L 11.0625 4.15625 L 11.0625 3.222656 Z M 10.585938 6.65625 L 5.320312 6.65625 L 5.320312 7.589844 L 10.585938 7.589844 Z M 10.585938 8.625 L 5.320312 8.625 L 5.320312 9.558594 L 10.585938 9.558594 Z M 10.585938 10.59375 L 5.320312 10.59375 L 5.320312 11.523438 L 10.585938 11.523438 Z M 10.128906 3.066406 L 10.128906 4.121094 C 10.128906 4.339844 9.949219 4.519531 9.726562 4.519531 L 6.273438 4.519531 C 6.050781 4.519531 5.871094 4.34375 5.871094 4.121094 L 5.871094 3.070312 C 5.871094 2.847656 6.050781 2.667969 6.273438 2.667969 L 6.859375 2.667969 L 6.859375 1.574219 C 6.859375 1.355469 7.039062 1.175781 7.257812 1.175781 L 8.742188 1.175781 C 8.960938 1.175781 9.140625 1.355469 9.140625 1.574219 L 9.140625 2.667969 L 9.726562 2.667969 C 9.949219 2.671875 10.128906 2.847656 10.128906 3.070312 Z M 8.464844 2.25 C 8.464844 1.992188 8.253906 1.78125 7.996094 1.78125 C 7.738281 1.78125 7.53125 1.992188 7.53125 2.25 C 7.53125 2.507812 7.738281 2.714844 7.996094 2.714844 C 8.253906 2.714844 8.464844 2.507812 8.464844 2.25 Z M 8.464844 2.25 "/>
</g>
</svg>
