<?xml version="1.0" encoding="UTF-8"?>
<svg xmlns="http://www.w3.org/2000/svg" xmlns:xlink="http://www.w3.org/1999/xlink" width="16px" height="16px" viewBox="0 0 16 16" version="1.1">
<g id="surface1">
<path style=" stroke:none;fill-rule:evenodd;fill:rgb(0%,0%,0%);fill-opacity:1;" d="M 0.667969 3.238281 C 0.667969 2.140625 1.609375 1.332031 2.667969 1.332031 L 13.332031 1.332031 C 14.390625 1.332031 15.332031 2.140625 15.332031 3.238281 L 15.332031 9.429688 C 15.332031 10.527344 14.390625 11.332031 13.332031 11.332031 L 8.667969 11.332031 L 8.667969 13.332031 L 11 13.332031 C 11.367188 13.332031 11.667969 13.632812 11.667969 14 C 11.667969 14.367188 11.367188 14.667969 11 14.667969 L 5 14.667969 C 4.632812 14.667969 4.332031 14.367188 4.332031 14 C 4.332031 13.632812 4.632812 13.332031 5 13.332031 L 7.332031 13.332031 L 7.332031 11.332031 L 2.667969 11.332031 C 1.609375 11.332031 0.667969 10.527344 0.667969 9.429688 Z M 2.667969 2.667969 C 2.25 2.667969 2 2.96875 2 3.238281 L 2 9.429688 C 2 9.699219 2.25 10 2.667969 10 L 13.332031 10 C 13.75 10 14 9.699219 14 9.429688 L 14 3.238281 C 14 2.96875 13.75 2.667969 13.332031 2.667969 Z M 2.667969 2.667969 "/>
</g>
</svg>
